{"asset":{"generator":"3D Builder","version":"2.0"},"scene":0,"scenes":[{"nodes":[0,1,2]}],"nodes":[{"mesh":0,"matrix":[1,0,0,0,0,-1.1920928955078125E-7,-0.99999988079071045,0,0,0.99999988079071045,-1.1920928955078125E-7,0,0,-9.4034624531502686E-10,-0.0078881951048970222,1]},{"mesh":1,"matrix":[1,0,0,0,0,-1.1920928955078125E-7,-0.99999988079071045,0,0,0.99999988079071045,-1.1920928955078125E-7,0,0,-9.4034624531502686E-10,-0.0078881951048970222,1]},{"mesh":2,"matrix":[1,0,0,0,0,-1.1920928955078125E-7,-0.99999988079071045,0,0,0.99999988079071045,-1.1920928955078125E-7,0,0,-9.4034624531502686E-10,-0.0078881951048970222,1]}],"meshes":[{"primitives":[{"attributes":{"POSITION":0},"mode":4,"indices":25,"material":0},{"attributes":{"POSITION":1,"TEXCOORD_0":13},"mode":4,"indices":26,"material":1},{"attributes":{"POSITION":2,"TEXCOORD_0":14},"mode":4,"indices":27,"material":1},{"attributes":{"POSITION":3,"TEXCOORD_0":15},"mode":4,"indices":28,"material":1},{"attributes":{"POSITION":4,"TEXCOORD_0":16},"mode":4,"indices":29,"material":1},{"attributes":{"POSITION":5,"TEXCOORD_0":17},"mode":4,"indices":30,"material":1},{"attributes":{"POSITION":6,"TEXCOORD_0":18},"mode":4,"indices":31,"material":1},{"attributes":{"POSITION":7,"TEXCOORD_0":19},"mode":4,"indices":32,"material":1},{"attributes":{"POSITION":8,"TEXCOORD_0":20},"mode":4,"indices":33,"material":1},{"attributes":{"POSITION":9,"TEXCOORD_0":21},"mode":4,"indices":34,"material":1},{"attributes":{"POSITION":10,"TEXCOORD_0":22},"mode":4,"indices":35,"material":1},{"attributes":{"POSITION":11,"TEXCOORD_0":23},"mode":4,"indices":36,"material":1},{"attributes":{"POSITION":12,"TEXCOORD_0":24},"mode":4,"indices":37,"material":1}]},{"primitives":[{"attributes":{"POSITION":38},"mode":4,"indices":39,"material":0}]},{"primitives":[{"attributes":{"POSITION":40},"mode":4,"indices":41,"material":0}]}],"materials":[{"name":"Regular","pbrMetallicRoughness":{"baseColorFactor":[0.60382741689682007,0.60382741689682007,0.60382741689682007,1],"metallicFactor":0,"roughnessFactor":1}},{"pbrMetallicRoughness":{"baseColorFactor":[1,1,1,1],"metallicFactor":0,"roughnessFactor":1,"baseColorTexture":{"index":0,"texCoord":0}}}],"textures":[{"source":0,"sampler":0}],"images":[{"uri":"texture_0.jpeg"}],"samplers":[{"magFilter":9729,"wrapS":10497,"wrapT":10497}],"accessors":[{"bufferView":0,"byteOffset":0,"count":28,"componentType":5126,"type":"VEC3","min":[-0.12740099430084229,-0.053776387125253677,0.0024720951914787292],"max":[0.12740099430084229,0.064999982714653015,0.19508063793182373]},{"bufferView":0,"byteOffset":336,"count":21,"componentType":5126,"type":"VEC3","min":[0.12136299908161163,-0.044694587588310242,0.00908178836107254],"max":[0.12999999523162842,0.064999982714653015,0.18847092986106873]},{"bufferView":0,"byteOffset":588,"count":18,"componentType":5126,"type":"VEC3","min":[-0.12522499263286591,-0.034487389028072357,0.18566453456878662],"max":[0.12522499263286591,0.064999982714653015,0.19755272567272186]},{"bufferView":0,"byteOffset":804,"count":21,"componentType":5126,"type":"VEC3","min":[-0.12999999523162842,-0.044694587588310242,0.00908178836107254],"max":[-0.12136299908161163,0.064999982714653015,0.18847092986106873]},{"bufferView":0,"byteOffset":1056,"count":13,"componentType":5126,"type":"VEC3","min":[-0.10499999672174454,-0.07169458270072937,0.00908178836107254],"max":[-0.096362695097923279,-0.048163585364818573,0.15225493907928467]},{"bufferView":0,"byteOffset":1212,"count":38,"componentType":5126,"type":"VEC3","min":[-0.12522499263286591,-0.07169458270072937,0],"max":[0.12522499263286591,0.064999982714653015,0.011888191103935242]},{"bufferView":0,"byteOffset":1668,"count":4,"componentType":5126,"type":"VEC3","min":[-0.077499993145465851,-0.059999980032444,0.043776378035545349],"max":[-0.01249999925494194,-0.0099999969825148582,0.043776378035545349]},{"bufferView":0,"byteOffset":1716,"count":5,"componentType":5126,"type":"VEC3","min":[-0.01249999925494194,-0.059999980032444,0],"max":[-0.01249999925494194,-0.0099999969825148582,0.043776378035545349]},{"bufferView":0,"byteOffset":1776,"count":4,"componentType":5126,"type":"VEC3","min":[-0.077499993145465851,-0.0099999969825148582,0],"max":[-0.01249999925494194,-0.0099999969825148582,0.043776378035545349]},{"bufferView":0,"byteOffset":1824,"count":5,"componentType":5126,"type":"VEC3","min":[-0.077499993145465851,-0.059999980032444,0],"max":[-0.077499993145465851,-0.0099999969825148582,0.043776378035545349]},{"bufferView":0,"byteOffset":1884,"count":4,"componentType":5126,"type":"VEC3","min":[-0.077499993145465851,-0.059999980032444,0.00092699378728866577],"max":[-0.01249999925494194,-0.059999980032444,0.043776378035545349]},{"bufferView":0,"byteOffset":1932,"count":13,"componentType":5126,"type":"VEC3","min":[0.011362699791789055,-0.07169458270072937,0.00908178836107254],"max":[0.019999999552965164,-0.048163585364818573,0.15225493907928467]},{"bufferView":0,"byteOffset":2088,"count":74,"componentType":5126,"type":"VEC3","min":[-0.12522499263286591,-0.08077637106180191,0.0045408979058265686],"max":[0.12522499263286591,-0.034487389028072357,0.1930118203163147]},{"bufferView":1,"byteOffset":0,"count":21,"componentType":5126,"type":"VEC2"},{"bufferView":1,"byteOffset":168,"count":18,"componentType":5126,"type":"VEC2"},{"bufferView":1,"byteOffset":312,"count":21,"componentType":5126,"type":"VEC2"},{"bufferView":1,"byteOffset":480,"count":13,"componentType":5126,"type":"VEC2"},{"bufferView":1,"byteOffset":584,"count":38,"componentType":5126,"type":"VEC2"},{"bufferView":1,"byteOffset":888,"count":4,"componentType":5126,"type":"VEC2"},{"bufferView":1,"byteOffset":920,"count":5,"componentType":5126,"type":"VEC2"},{"bufferView":1,"byteOffset":960,"count":4,"componentType":5126,"type":"VEC2"},{"bufferView":1,"byteOffset":992,"count":5,"componentType":5126,"type":"VEC2"},{"bufferView":1,"byteOffset":1032,"count":4,"componentType":5126,"type":"VEC2"},{"bufferView":1,"byteOffset":1064,"count":13,"componentType":5126,"type":"VEC2"},{"bufferView":1,"byteOffset":1168,"count":74,"componentType":5126,"type":"VEC2"},{"bufferView":2,"byteOffset":0,"count":84,"componentType":5125,"type":"SCALAR"},{"bufferView":2,"byteOffset":336,"count":75,"componentType":5125,"type":"SCALAR"},{"bufferView":2,"byteOffset":636,"count":60,"componentType":5125,"type":"SCALAR"},{"bufferView":2,"byteOffset":876,"count":75,"componentType":5125,"type":"SCALAR"},{"bufferView":2,"byteOffset":1176,"count":39,"componentType":5125,"type":"SCALAR"},{"bufferView":2,"byteOffset":1332,"count":138,"componentType":5125,"type":"SCALAR"},{"bufferView":2,"byteOffset":1884,"count":6,"componentType":5125,"type":"SCALAR"},{"bufferView":2,"byteOffset":1908,"count":9,"componentType":5125,"type":"SCALAR"},{"bufferView":2,"byteOffset":1944,"count":6,"componentType":5125,"type":"SCALAR"},{"bufferView":2,"byteOffset":1968,"count":9,"componentType":5125,"type":"SCALAR"},{"bufferView":2,"byteOffset":2004,"count":6,"componentType":5125,"type":"SCALAR"},{"bufferView":2,"byteOffset":2028,"count":39,"componentType":5125,"type":"SCALAR"},{"bufferView":2,"byteOffset":2184,"count":318,"componentType":5125,"type":"SCALAR"},{"bufferView":3,"byteOffset":0,"count":16,"componentType":5126,"type":"VEC3","min":[0.024999998509883881,-0.059999980032444,0.042499985545873642],"max":[0.10499999672174454,-0.019999993965029716,0.097499966621398926]},{"bufferView":4,"byteOffset":0,"count":96,"componentType":5125,"type":"SCALAR"},{"bufferView":5,"byteOffset":0,"count":8,"componentType":5126,"type":"VEC3","min":[0.032499998807907104,-0.074999973177909851,0.049999989569187164],"max":[0.097499996423721313,-0.034999988973140717,0.0899999737739563]},{"bufferView":6,"byteOffset":0,"count":36,"componentType":5125,"type":"SCALAR"}],"bufferViews":[{"buffer":0,"byteOffset":0,"byteLength":2976,"byteStride":12,"target":34962},{"buffer":0,"byteOffset":2976,"byteLength":1760,"byteStride":8,"target":34962},{"buffer":0,"byteOffset":4736,"byteLength":3456,"target":34963},{"buffer":0,"byteOffset":8192,"byteLength":192,"byteStride":12,"target":34962},{"buffer":0,"byteOffset":8384,"byteLength":384,"target":34963},{"buffer":0,"byteOffset":8768,"byteLength":96,"byteStride":12,"target":34962},{"buffer":0,"byteOffset":8864,"byteLength":144,"target":34963}],"buffers":[{"byteLength":9008,"uri":"handdryer.bin"}]}